<svg width="234" height="60" viewBox="0 0 234 60" fill="none" xmlns="http://www.w3.org/2000/svg">
    <rect y="5" width="234" height="50" fill="url(#kingdom_footer_bg)"/>
    <rect x="16" y="14" width="40" height="8" rx="1" fill="white"/>
    <circle cx="24" cy="32" r="3" fill="white" fill-opacity=".85"/>
    <circle cx="36" cy="32" r="3" fill="white" fill-opacity=".85"/>
    <circle cx="48" cy="32" r="3" fill="white" fill-opacity=".85"/>
    <rect x="16" y="40" width="40" height="4" rx="1" fill="white" fill-opacity=".5"/>
    <rect x="70" y="14" width="32" height="4" rx="1" fill="white"/>
    <rect x="70" y="22" width="28" height="3" rx="1" fill="white" fill-opacity=".6"/>
    <rect x="70" y="28" width="28" height="3" rx="1" fill="white" fill-opacity=".6"/>
    <rect x="70" y="34" width="28" height="3" rx="1" fill="white" fill-opacity=".6"/>
    <rect x="70" y="40" width="28" height="3" rx="1" fill="white" fill-opacity=".6"/>
    <rect x="116" y="14" width="32" height="4" rx="1" fill="white"/>
    <rect x="116" y="22" width="28" height="3" rx="1" fill="white" fill-opacity=".6"/>
    <rect x="116" y="28" width="28" height="3" rx="1" fill="white" fill-opacity=".6"/>
    <rect x="116" y="34" width="28" height="3" rx="1" fill="white" fill-opacity=".6"/>
    <rect x="116" y="40" width="28" height="3" rx="1" fill="white" fill-opacity=".6"/>
    <rect x="162" y="14" width="32" height="4" rx="1" fill="white"/>
    <rect x="162" y="22" width="28" height="3" rx="1" fill="white" fill-opacity=".6"/>
    <rect x="162" y="28" width="28" height="3" rx="1" fill="white" fill-opacity=".6"/>
    <rect x="162" y="34" width="28" height="3" rx="1" fill="white" fill-opacity=".6"/>
    <rect x="162" y="40" width="28" height="3" rx="1" fill="white" fill-opacity=".6"/>
    <defs>
        <linearGradient id="kingdom_footer_bg" x1="0" y1="5" x2="234" y2="55" gradientUnits="userSpaceOnUse">
            <stop stop-color="#1a1a1a"/>
            <stop offset="1" stop-color="#333333"/>
        </linearGradient>
    </defs>
</svg>
